<?xml version="1.0" encoding="utf-8" ?>
<svg xmlns="http://www.w3.org/2000/svg" xmlns:xlink="http://www.w3.org/1999/xlink" width="1024" height="1024">
	<path fill="#FEFEFE" d="M0 0L1024 0L1024 1024L0 1024L0 0Z"/>
	<path fill="#29549E" d="M698.468 851.326C703.045 852.647 706.924 852.779 711.62 852.241C712.526 852.712 713.054 853.045 713.687 853.853C708.315 855.588 702.265 854.858 696.942 853.35L698.468 851.326Z"/>
	<path fill="#29549E" d="M682.709 807.555C683.22 808.98 683.307 809.544 682.961 811.084C680.791 815.402 679.656 819.158 678.952 823.932C678.992 831.676 681.137 838.616 686.729 844.25C690.076 847.623 694.051 849.71 698.468 851.326L696.942 853.35C691.521 851.445 686.554 848.25 682.907 843.769C678.582 838.454 676.086 831.436 676.811 824.564C677.115 818.198 679.298 812.846 682.709 807.555Z"/>
	<path fill="#29549E" d="M528.998 206.448L529.235 206.395L530.586 207.907C529.631 214.611 527.187 221.946 523.687 227.755C521.466 231.441 518.34 234.78 513.983 235.733C510.645 236.463 507.324 235.571 504.558 233.632C496.597 228.052 494.123 217.101 492.575 208.148L494.001 208.049C495.409 213.603 496.871 219.42 499.565 224.514C501.527 228.225 504.756 232.411 509.003 233.542C511.628 234.241 514.269 233.822 516.561 232.374C524.307 227.479 527.112 214.734 528.998 206.448Z"/>
	<path fill="#D2593E" d="M476.326 173.991L478.426 175.228C470.921 182.389 463.809 188.543 460.481 198.671C460.39 203.366 461.205 205.315 463.964 209.104C463.982 209.13 463.988 209.162 463.999 209.191Q464.802 209.629 465.627 210.024C473.066 213.554 480.766 210.318 487.916 207.753L489.75 209.438C483.156 212.71 474.23 215.904 466.914 213.394C465.739 212.991 464.212 212.323 463.359 211.4C461.823 210.331 460.564 209.001 459.614 207.376C457.362 203.527 457.942 199.75 459.018 195.688C462.373 186.482 469.269 180.412 476.326 173.991Z"/>
	<path fill="#D2593E" d="M527.208 141.681C525.794 134.96 524.555 127.357 521.181 121.283C519.498 118.252 517.102 115.654 513.636 114.781C511.167 114.159 508.427 114.485 506.246 115.814C498.902 120.291 498.242 131.647 496.165 138.983C495.821 140.198 495.475 140.756 494.417 141.407C493.98 140.987 494 141.124 493.873 140.474C492.896 135.466 497.055 123.183 499.783 118.827C501.891 115.46 504.964 112.164 509.035 111.398C512.333 110.777 515.83 111.951 518.44 113.969C525.531 119.451 528.552 132.196 529.771 140.74L527.208 141.681Z"/>
	<path fill="#D2593E" d="M546.037 174.218C553.854 180.683 563.929 188.788 564.706 199.746C564.975 203.545 563.966 207.482 561.346 210.329C558.7 213.206 554.967 214.337 551.141 214.326C543.665 214.304 537.251 210.853 530.586 207.907L529.235 206.395L529.797 205.075C536.466 207.759 543.256 211.496 550.605 211.65C553.668 211.714 556.843 211.034 559.044 208.757C561.208 206.519 562.251 203.377 562.118 200.296C561.676 190.016 551.219 182.113 544.318 175.712L546.037 174.218Z"/>
	<path fill="#325EA7" d="M682.709 807.555C687.759 800.846 694.458 796.759 702.755 795.519C710.418 794.374 717.993 796.097 724.242 800.723C730.644 805.462 735.231 812.601 736.34 820.538Q736.442 821.265 736.508 821.995Q736.575 822.726 736.605 823.459Q736.635 824.193 736.629 824.926Q736.623 825.66 736.581 826.393Q736.539 827.125 736.461 827.855Q736.383 828.585 736.269 829.31Q736.155 830.034 736.005 830.753Q735.856 831.471 735.671 832.181Q735.486 832.892 735.267 833.592Q735.048 834.292 734.794 834.981Q734.541 835.669 734.253 836.345Q733.966 837.02 733.646 837.68Q733.326 838.34 732.974 838.984Q732.622 839.628 732.238 840.254Q731.855 840.879 731.441 841.485Q731.027 842.091 730.584 842.676C728.583 845.298 726.136 847.367 723.561 849.399C724.022 848.297 724.113 847.172 724.287 845.998C724.79 845.441 725.295 844.891 725.808 844.344C731.077 838.729 734.519 831.363 734.099 823.528C733.704 816.149 730.221 808.753 724.592 803.935C719.024 799.168 711.221 797.032 703.975 797.855C694.651 798.914 688.452 804.003 682.961 811.084C683.307 809.544 683.22 808.98 682.709 807.555Z"/>
	<path fill="#29549E" d="M128.618 625.334C128.67 625.2 128.715 625.063 128.774 624.932C130.203 621.801 133.025 619.428 136.217 618.23C140.111 616.768 143.701 617.059 147.416 618.788C151.039 621.248 153.505 624.105 154.462 628.489Q154.616 629.177 154.697 629.878Q154.778 630.578 154.786 631.283Q154.793 631.989 154.727 632.691Q154.66 633.393 154.521 634.084Q154.381 634.775 154.17 635.448Q153.959 636.121 153.678 636.768Q153.398 637.415 153.051 638.029Q152.705 638.643 152.296 639.218C151.562 640.264 150.527 641.38 149.496 642.144C149.354 642.255 149.22 642.374 149.072 642.476C146.089 644.519 142.08 645.29 138.534 644.731C134.601 644.11 131.915 641.912 129.706 638.721C129.288 638.04 128.92 637.374 128.604 636.638C126.918 632.715 127.092 629.271 128.618 625.334Z"/>
	<path fill="#FEFEFE" d="M130.245 627.09C131.594 624.094 133.597 621.691 136.706 620.42C140.152 619.013 143.154 619.432 146.511 620.753C149.453 623.01 152.039 626.043 152.414 629.897C152.74 633.244 151.493 636.695 149.246 639.162Q148.588 639.875 147.887 640.547C145.315 641.792 142.74 642.833 139.829 642.525C136.13 642.134 133.589 639.833 131.258 637.127C129.418 633.614 129.243 630.895 130.245 627.09Z"/>
	<path fill="#D2593E" d="M772.331 145.621C775.106 145.496 777.977 145.856 780.524 147.017Q781.173 147.31 781.787 147.669Q782.402 148.028 782.976 148.449Q783.55 148.87 784.077 149.348Q784.605 149.826 785.08 150.356Q785.554 150.886 785.972 151.463Q786.389 152.04 786.744 152.657Q787.099 153.273 787.389 153.924Q787.678 154.574 787.898 155.251C789.218 159.32 788.854 164.014 786.858 167.805C784.44 172.396 780.85 174.294 776.094 175.673C772.431 175.701 769.472 175.394 766.254 173.475Q765.62 173.105 765.027 172.672Q764.434 172.239 763.888 171.749Q763.341 171.259 762.847 170.715Q762.353 170.172 761.916 169.582Q761.48 168.992 761.105 168.361Q760.73 167.73 760.421 167.064Q760.112 166.398 759.871 165.704Q759.631 165.01 759.462 164.296C758.488 160.221 759.339 155.629 761.664 152.152C764.258 148.271 767.909 146.575 772.331 145.621Z"/>
	<path fill="#FEFEFE" d="M770.478 148.533C772.745 148.34 774.997 148.141 777.204 148.83Q777.815 149.018 778.403 149.268Q778.991 149.517 779.551 149.826Q780.11 150.135 780.635 150.501Q781.159 150.866 781.643 151.283Q782.127 151.7 782.566 152.164Q783.005 152.629 783.393 153.137Q783.782 153.644 784.116 154.189Q784.45 154.734 784.726 155.31Q784.99 155.865 785.197 156.444Q785.404 157.022 785.552 157.619Q785.7 158.215 785.788 158.823Q785.876 159.431 785.904 160.045Q785.931 160.659 785.897 161.273Q785.862 161.886 785.767 162.493Q785.672 163.101 785.517 163.695Q785.362 164.29 785.148 164.866C783.627 168.897 780.814 170.782 777.029 172.453C775.286 172.635 773.481 172.789 771.741 172.482C768.47 171.904 765.294 169.666 763.526 166.88Q763.198 166.368 762.924 165.825Q762.652 165.282 762.437 164.713Q762.223 164.144 762.069 163.556Q761.916 162.968 761.825 162.366Q761.734 161.765 761.707 161.158Q761.68 160.551 761.717 159.944Q761.754 159.337 761.855 158.737Q761.955 158.138 762.118 157.552C763.375 153.084 766.53 150.594 770.478 148.533Z"/>
	<path fill="#FEFEFE" d="M511.287 198.392C517.079 201.962 522.321 204.923 528.998 206.448C527.112 214.734 524.307 227.479 516.561 232.374C514.269 233.822 511.628 234.241 509.003 233.542C504.756 232.411 501.527 228.225 499.565 224.514C496.871 219.42 495.409 213.603 494.001 208.049L494.751 207.277C500.408 205.491 506.19 201.448 511.287 198.392Z"/>
	<path fill="#29549E" d="M869.372 513.559C872.876 509.867 877.262 507.622 882.421 507.531Q883.307 507.519 884.189 507.597Q885.071 507.674 885.941 507.839Q886.811 508.005 887.66 508.257Q888.509 508.509 889.328 508.845Q890.147 509.181 890.929 509.598Q891.71 510.015 892.446 510.508Q893.181 511.001 893.864 511.565Q894.546 512.13 895.168 512.76C897.547 515.13 898.951 517.873 899.681 521.125C900.179 526.354 899.131 531.438 895.775 535.596C894.13 537.633 892.132 539.076 889.845 540.307C886.042 541.782 883.085 542.088 879.079 541.852C877.945 541.487 876.79 541.123 875.699 540.638C871.692 538.859 868.647 535.439 867.024 531.418C866.278 529.891 865.823 528.541 865.583 526.849C864.876 521.877 866.496 517.534 869.372 513.559Z"/>
	<path fill="#FEFEFE" d="M870.746 515.58C873.825 512.387 877.223 509.929 881.834 509.799C886.121 509.678 890.316 511.617 893.306 514.652C894.686 516.052 895.778 517.776 896.808 519.441C897.888 523.271 898.206 527.571 896.15 531.146C894.078 534.748 891.318 536.358 888.067 538.669C885.196 539.552 882.698 539.814 879.712 539.561C874.745 537.978 872.267 535.549 869.331 531.421Q868.864 529.851 868.487 528.258C867.387 523.447 868.15 519.705 870.746 515.58Z"/>
	<path fill="#FEFEFE" d="M544.318 175.712C551.219 182.113 561.676 190.016 562.118 200.296C562.251 203.377 561.208 206.519 559.044 208.757C556.843 211.034 553.668 211.714 550.605 211.65C543.256 211.496 536.466 207.759 529.797 205.075C523.948 202.864 518.699 200.321 513.403 196.993Q521.851 191.54 530.415 186.269L532.223 184.99C535.637 181.691 540.554 178.741 544.318 175.712Z"/>
	<path fill="#D2593E" d="M532.223 184.99C532.774 188.286 532.952 201.727 530.892 204.129C530.682 204.373 530.441 204.588 530.215 204.818C529.333 203.87 529.59 202.044 529.642 200.763C529.838 195.922 530.572 191.126 530.415 186.269L532.223 184.99Z"/>
	<path fill="#FEFEFE" d="M478.426 175.228C484.423 181.371 492.2 186.587 499.53 191.05C502.614 193.045 505.923 194.944 508.824 197.186C503.855 200.231 498.948 203.198 493.456 205.214L494.751 207.277L494.001 208.049L492.575 208.148L489.75 209.438L487.916 207.753C480.766 210.318 473.066 213.554 465.627 210.024Q464.802 209.629 463.999 209.191C463.988 209.162 463.982 209.13 463.964 209.104C461.205 205.315 460.39 203.366 460.481 198.671C463.809 188.543 470.921 182.389 478.426 175.228Z"/>
	<path fill="#D2593E" d="M487.916 207.753C488.403 207.546 488.895 207.346 489.374 207.121C489.835 206.904 491.096 206.273 491.331 205.858C492.727 203.388 489.301 190.956 490.811 186.839L491.265 187.146C493.628 192.098 493.48 199.734 493.456 205.214L494.751 207.277L494.001 208.049L492.575 208.148L489.75 209.438L487.916 207.753Z"/>
	<path fill="#F5D14A" d="M483.255 870.113C487.039 869.673 490.369 869.823 493.923 871.342Q494.329 871.515 494.726 871.708Q495.123 871.901 495.509 872.114Q495.895 872.327 496.27 872.56Q496.645 872.793 497.008 873.044Q497.37 873.296 497.72 873.566Q498.069 873.836 498.404 874.123Q498.738 874.411 499.058 874.715Q499.378 875.019 499.682 875.339Q499.985 875.659 500.272 875.994Q500.559 876.33 500.829 876.679Q501.098 877.029 501.349 877.391Q501.6 877.754 501.833 878.129Q502.065 878.505 502.278 878.891Q502.491 879.278 502.683 879.675Q502.876 880.072 503.048 880.478Q503.22 880.884 503.371 881.299C505.009 885.801 504.639 890.93 502.612 895.246C500.017 900.769 495.659 903.731 490.075 905.635C485.955 906.337 481.771 905.945 477.999 904.068Q477.242 903.69 476.527 903.239Q475.812 902.787 475.145 902.266Q474.479 901.744 473.869 901.158Q473.258 900.573 472.71 899.929Q472.161 899.285 471.68 898.589Q471.2 897.893 470.791 897.152Q470.382 896.411 470.05 895.633Q469.718 894.855 469.466 894.048Q469.18 893.169 468.982 892.266Q468.784 891.364 468.676 890.446Q468.568 889.528 468.55 888.604Q468.533 887.68 468.606 886.758Q468.68 885.837 468.843 884.927Q469.007 884.018 469.26 883.129Q469.512 882.24 469.851 881.38Q470.189 880.52 470.611 879.697C473.405 874.321 477.772 871.967 483.255 870.113Z"/>
	<path fill="#FEFEFE" d="M485.218 872.651C488.125 872.734 491.151 873.319 493.781 874.579C497.268 876.249 500.025 879.235 501.132 882.968C502.338 887.031 501.638 891.705 499.526 895.352C496.929 899.836 493.129 901.766 488.335 903.079C484.547 903.122 481.38 902.784 478.105 900.716Q477.478 900.324 476.893 899.871Q476.308 899.418 475.772 898.908Q475.236 898.398 474.754 897.837Q474.272 897.275 473.849 896.668Q473.426 896.061 473.067 895.414Q472.707 894.768 472.415 894.088Q472.122 893.409 471.9 892.703Q471.677 891.997 471.527 891.273Q471.377 890.544 471.299 889.804Q471.221 889.064 471.216 888.32Q471.211 887.575 471.279 886.834Q471.347 886.093 471.487 885.362Q471.627 884.631 471.838 883.917Q472.05 883.204 472.33 882.514Q472.61 881.825 472.956 881.166Q473.303 880.508 473.712 879.886C476.406 875.747 480.501 873.629 485.218 872.651Z"/>
	<path fill="#325EA7" d="M529.771 140.74C537.391 137.34 546.23 134.791 554.529 136.765L554.17 138.774C543.469 136.246 524.167 144.292 514.799 150.04C514.341 150.321 513.909 150.642 513.47 150.952L513.432 151.69L512.631 153.975C510.037 153.302 508.477 154.46 506.281 155.745C501.554 158.513 497.084 161.917 492.716 165.214L490.606 166.485Q489.898 174.164 489.537 181.868L490.92 182.926C494.645 185.356 498.441 187.716 502.104 190.237L499.53 191.05C492.2 186.587 484.423 181.371 478.426 175.228L476.326 173.991C471.526 171.553 466.385 165.605 463.339 161.217C460.263 156.786 457.867 151.38 458.979 145.885C459.604 142.798 461.242 140.092 463.899 138.352C469.083 134.957 475.426 136.317 481.092 137.349C491.548 140.448 500.681 144.937 510.227 150.073C515.707 146.919 521.794 144.841 527.208 141.681L529.771 140.74Z"/>
	<path fill="#FEFEFE" d="M479.82 174.317C483.279 171.476 486.901 168.986 490.606 166.485Q489.898 174.164 489.537 181.868Q484.611 178.179 479.82 174.317Z"/>
	<path fill="#FEFEFE" d="M494.92 144.639C499.654 146.659 504.187 149.114 508.75 151.487C506.209 153.382 503.345 154.995 500.662 156.693C497.801 158.629 495.04 160.757 492.247 162.795C492.814 156.684 493.802 150.669 494.92 144.639Z"/>
	<path fill="#FEFEFE" d="M478.307 172.836C473.933 170.297 469.683 165.833 466.53 161.927C463.193 157.791 460.029 152.567 460.761 147.038C461.1 144.481 462.326 142.148 464.408 140.595C469.102 137.095 475.429 138.34 480.739 139.262C485.054 140.694 489.396 142.064 493.59 143.831C492.004 150.547 490.682 157.327 490.478 164.246C486.034 166.839 482.127 169.396 478.307 172.836Z"/>
	<path fill="#F5D14A" d="M198.547 776.744C198.988 776.834 199.271 776.862 199.689 777.096C202.484 778.657 205.83 792.245 207.486 795.847C210.611 802.644 222.049 804.432 228.536 806.754C230.51 807.461 234.1 808.438 235.016 810.366C230.285 816.093 216.279 815.984 210.741 822.37C205.35 828.585 204.517 837.945 200.025 844.926L198.833 844.874C194.03 841.27 192.789 827.02 187.253 821.108C182.581 816.119 167.694 815.966 164.089 810.138C167.42 805.803 184.324 803.934 189.554 797.817C192.761 794.067 195.07 782.488 198.547 776.744Z"/>
	<path fill="#FEFEFE" d="M682.961 811.084C688.452 804.003 694.651 798.914 703.975 797.855C711.221 797.032 719.024 799.168 724.592 803.935C730.221 808.753 733.704 816.149 734.099 823.528C734.519 831.363 731.077 838.729 725.808 844.344C725.295 844.891 724.79 845.441 724.287 845.998C724.113 847.172 724.022 848.297 723.561 849.399C720.42 851.286 717.31 853.063 713.687 853.853C713.054 853.045 712.526 852.712 711.62 852.241C706.924 852.779 703.045 852.647 698.468 851.326C694.051 849.71 690.076 847.623 686.729 844.25C681.137 838.616 678.992 831.676 678.952 823.932C679.656 819.158 680.791 815.402 682.961 811.084Z"/>
	<path fill="#29549E" d="M711.62 852.241C716.338 850.745 720.215 848.812 724.287 845.998C724.113 847.172 724.022 848.297 723.561 849.399C720.42 851.286 717.31 853.063 713.687 853.853C713.054 853.045 712.526 852.712 711.62 852.241Z"/>
	<path fill="#FEFEFE" d="M554.529 136.765C558.295 138.549 561.788 140.856 563.153 145.017C564.539 149.243 563.22 153.72 561.21 157.499C557.719 164.064 551.568 169.408 546.037 174.218L544.318 175.712C540.554 178.741 535.637 181.691 532.223 184.99L530.415 186.269Q521.851 191.54 513.403 196.993C518.699 200.321 523.948 202.864 529.797 205.075L529.235 206.395L528.998 206.448C522.321 204.923 517.079 201.962 511.287 198.392C506.19 201.448 500.408 205.491 494.751 207.277L493.456 205.214C498.948 203.198 503.855 200.231 508.824 197.186C505.923 194.944 502.614 193.045 499.53 191.05L502.104 190.237C498.441 187.716 494.645 185.356 490.92 182.926L489.537 181.868Q489.898 174.164 490.606 166.485L492.716 165.214C497.084 161.917 501.554 158.513 506.281 155.745C508.477 154.46 510.037 153.302 512.631 153.975L513.432 151.69L513.47 150.952C513.909 150.642 514.341 150.321 514.799 150.04C524.167 144.292 543.469 136.246 554.17 138.774L554.529 136.765Z"/>
	<path fill="#D2593E" d="M529.713 161.737C529.354 157.238 527.437 148.852 528.465 144.95L529.067 144.341C531.167 147.65 532.369 158.033 531.795 161.911C531.716 162.446 531.66 162.51 531.468 162.937L529.713 161.737Z"/>
	<path fill="#29549E" d="M554.529 136.765C558.295 138.549 561.788 140.856 563.153 145.017C564.539 149.243 563.22 153.72 561.21 157.499C557.719 164.064 551.568 169.408 546.037 174.218L544.318 175.712C540.554 178.741 535.637 181.691 532.223 184.99L530.415 186.269Q521.851 191.54 513.403 196.993C518.699 200.321 523.948 202.864 529.797 205.075L529.235 206.395L528.998 206.448C522.321 204.923 517.079 201.962 511.287 198.392C506.19 201.448 500.408 205.491 494.751 207.277L493.456 205.214C498.948 203.198 503.855 200.231 508.824 197.186C505.923 194.944 502.614 193.045 499.53 191.05L502.104 190.237C505.102 191.619 508.154 194.044 510.966 195.839C517.548 191.812 524.236 187.884 530.54 183.432L532.575 181.864C532.615 176.723 532.72 171.576 532.489 166.438C527.652 163.17 522.557 160.239 517.569 157.207C515.843 156.199 514.211 155.202 512.631 153.975L513.432 151.69Q516.7 153.725 519.991 155.721L529.713 161.737L531.468 162.937C535.665 165.881 539.939 168.783 543.971 171.946C544.07 171.928 544.17 171.92 544.266 171.891C548.528 170.59 556.52 161.377 558.878 157.419C560.891 154.04 562.146 150.096 561.038 146.186C559.972 142.422 557.432 140.608 554.17 138.774L554.529 136.765Z"/>
	<path fill="#FEFEFE" d="M532.489 166.438Q537.26 169.816 541.991 173.25C540.727 176.464 535.269 179.822 532.575 181.864C532.615 176.723 532.72 171.576 532.489 166.438Z"/>
	<path fill="#FEFEFE" d="M492.716 165.214C497.084 161.917 501.554 158.513 506.281 155.745C508.477 154.46 510.037 153.302 512.631 153.975C514.211 155.202 515.843 156.199 517.569 157.207C522.557 160.239 527.652 163.17 532.489 166.438C532.72 171.576 532.615 176.723 532.575 181.864L530.54 183.432C524.236 187.884 517.548 191.812 510.966 195.839C508.154 194.044 505.102 191.619 502.104 190.237C498.441 187.716 494.645 185.356 490.92 182.926L489.537 181.868Q489.898 174.164 490.606 166.485L492.716 165.214Z"/>
	<path fill="#D2593E" d="M530.54 183.432C530.486 179.027 528.962 170.811 530.777 166.943L532.489 166.438C532.72 171.576 532.615 176.723 532.575 181.864L530.54 183.432Z"/>
	<path fill="#D2593E" d="M492.716 165.214C492.613 167.9 492.673 181.226 491.324 182.642C491.21 182.761 491.054 182.832 490.92 182.926L489.537 181.868Q489.898 174.164 490.606 166.485L492.716 165.214Z"/>
	<path fill="#D2593E" d="M147.155 215.191C154.394 214.795 161.279 216.46 167.185 220.81C173.541 225.491 177.968 232.418 179.138 240.271C180.37 248.534 178.478 256.968 173.469 263.706C167.897 271.201 160.455 274.578 151.401 275.978C143.604 276.256 136.102 274.745 129.79 269.879C123.356 264.918 119.094 257.052 118.19 248.999C117.286 240.945 120 232.826 125.058 226.571C130.782 219.491 138.22 216.129 147.155 215.191Z"/>
	<path fill="#FEFEFE" d="M145.973 217.642C152.557 217.013 158.803 218.329 164.365 222.03Q164.951 222.427 165.517 222.853Q166.082 223.279 166.626 223.732Q167.169 224.186 167.689 224.666Q168.209 225.147 168.705 225.652Q169.2 226.158 169.67 226.688Q170.139 227.218 170.582 227.77Q171.024 228.323 171.439 228.897Q171.853 229.471 172.238 230.065Q172.623 230.659 172.978 231.272Q173.333 231.884 173.656 232.514Q173.98 233.143 174.272 233.788Q174.564 234.433 174.823 235.092Q175.082 235.751 175.308 236.422Q175.534 237.093 175.726 237.774Q175.918 238.456 176.076 239.146Q176.234 239.836 176.357 240.533C177.595 247.887 175.924 255.823 171.555 261.894C166.661 268.695 159.661 272.092 151.528 273.351C144.981 273.891 138.379 272.392 132.878 268.728C126.606 264.551 122.551 257.837 121.194 250.483C119.848 243.194 121.78 235.796 125.958 229.755C130.851 222.682 137.741 219.137 145.973 217.642Z"/>
	<path fill="#D2593E" d="M97.3117 425.706C100.896 417.087 101.685 405.308 109.558 399.004C111.748 397.252 114.433 396.505 117.214 396.816C120.725 397.208 123.612 399.005 125.731 401.781L124.895 402.933C129.479 410.486 132.22 418.371 133.802 427.082C129.674 428.989 119.127 435.144 115.559 435.285L114.597 436.185C114.989 437.096 115.26 437.138 116.038 437.701C109.5 441.685 102.873 445.577 96.5643 449.919C96.4307 452.788 96.1512 455.722 96.3144 458.591C96.695 461.783 97.1196 466.052 96.5772 469.199L96.8208 470.894C99.3753 472.833 113.358 480.461 113.799 480.952C114.037 481.217 114.102 481.596 114.253 481.918L115.001 483.011C112.347 484.924 102.984 490.46 99.9471 490.287L99.2015 489.398L97.9112 489.895L98.1393 491.706C91.2572 495.303 81.3788 499.807 73.4947 499.218C70.2739 498.977 67.1651 497.745 65.1359 495.143C63.1965 492.657 62.5755 489.423 62.9307 486.337C64.0626 476.502 74.4848 465.188 81.8133 459.162C80.1563 457.973 78.7912 456.46 77.3682 455.008C75.3361 453.257 73.3554 451.363 71.5694 449.362C66.589 443.78 62.1792 436.763 62.8696 428.965C63.1035 426.323 63.9833 423.801 66.1427 422.135C76.4717 414.168 86.8249 424.227 96.8836 425.656C97.0258 425.676 97.169 425.69 97.3117 425.706Z"/>
	<path fill="#FEFEFE" d="M94.8445 451.173C94.7453 454.59 94.7587 457.915 95.0239 461.324C94.9784 462.87 95.2374 464.188 94.3552 465.49C92.5897 464.839 91.2523 463.541 89.6432 462.604C88.6159 461.338 86.7572 460.159 85.4762 459.097C88.4688 456.328 91.7128 453.785 94.8445 451.173Z"/>
	<path fill="#FEFEFE" d="M96.8208 470.894C99.3753 472.833 113.358 480.461 113.799 480.952C114.037 481.217 114.102 481.596 114.253 481.918C109.053 484.153 104.017 486.88 98.9561 489.416C98.0949 483.243 97.2848 477.111 96.8208 470.894Z"/>
	<path fill="#FEFEFE" d="M98.7715 429.045C104.216 431.069 109.396 433.731 114.471 436.541C111.513 438.242 108.642 440.062 105.767 441.898L96.6955 447.494C97.4739 441.337 97.7793 435.195 98.7715 429.045Z"/>
	<path fill="#FEFEFE" d="M78.9152 453.283C75.986 450.734 73.1579 448.01 70.7002 444.997C66.8719 440.304 64.1166 434.936 64.9368 428.686C65.2321 426.436 66.1286 424.262 68.0729 422.963C77.1406 416.903 88.0053 426.146 95.7046 427.224C95.9496 427.258 96.1959 427.283 96.4415 427.312C97.6888 430.439 95.245 444.195 94.8985 448.681C91.0831 451.51 87.223 454.293 83.5703 457.331L78.9152 453.283Z"/>
	<path fill="#FEFEFE" d="M82.8467 461.14C85.2016 461.45 88.3237 464.568 90.3326 465.992Q92.8766 467.869 95.3883 469.789C95.5349 476.638 97.0211 483.14 97.6344 489.903C90.9539 492.916 83.1517 497.226 75.727 497.497C72.6235 497.61 69.6447 496.832 67.3674 494.63C65.3719 492.7 64.3311 490.403 64.4038 487.611C64.6766 477.141 76.0825 467.958 82.8467 461.14Z"/>
	<path fill="#FEFEFE" d="M99.098 426.992C100.756 418.609 103.455 408.253 109.349 401.763C111.109 399.825 113.357 398.21 116.066 398.143C119.668 398.053 122.511 400.545 124.895 402.933C129.479 410.486 132.22 418.371 133.802 427.082C129.674 428.989 119.127 435.144 115.559 435.285C110.537 431.986 104.528 429.568 99.098 426.992Z"/>
	<path fill="#D2593E" d="M124.895 402.933L125.731 401.781C131.147 408.54 133.405 417.953 135.369 426.208C144.023 422.509 156.39 416.92 165.757 420.808C168.254 421.845 170.189 423.632 171.106 426.205C172.634 430.491 171.477 435.278 169.48 439.203C165.505 447.014 158.584 453.555 152.006 459.171C159.81 465.833 172.496 475.95 173.139 487.066C173.32 490.192 172.36 493.278 170.285 495.647C168.003 498.253 164.547 499.068 161.212 499.096C152.509 499.168 143.806 494.916 135.946 491.589C133.38 501.008 130.949 515.813 121.823 521.155C119.367 522.592 116.962 522.851 114.242 522.038C109.408 520.593 106.296 516 104.162 511.701C101.049 505.426 99.2075 498.605 98.1393 491.706L97.9112 489.895L99.2015 489.398L99.9471 490.287C102.984 490.46 112.347 484.924 115.001 483.011L114.253 481.918C114.102 481.596 114.037 481.217 113.799 480.952C113.358 480.461 99.3753 472.833 96.8208 470.894L96.5772 469.199C97.1196 466.052 96.695 461.783 96.3144 458.591C96.1512 455.722 96.4307 452.788 96.5643 449.919C102.873 445.577 109.5 441.685 116.038 437.701C115.26 437.138 114.989 437.096 114.597 436.185L115.559 435.285C119.127 435.144 129.674 428.989 133.802 427.082C132.22 418.371 129.479 410.486 124.895 402.933Z"/>
	<path fill="#FEFEFE" d="M138.994 451.725C142.467 453.33 145.68 456.409 148.675 458.805C147.25 460.052 145.735 461.208 144.256 462.392L138.927 466.553C138.888 461.612 138.965 456.666 138.994 451.725Z"/>
	<path fill="#FEFEFE" d="M133.616 428.986L133.89 429.095C136.045 431.393 136.679 443.809 136.949 447.277C133.817 445.515 130.786 443.504 127.731 441.607L118.736 436.459C123.485 433.625 128.633 431.379 133.616 428.986Z"/>
	<path fill="#FEFEFE" d="M136.276 470.913L136.597 471.16C137.954 473.706 135.485 485.703 134.828 489.018C131.169 487.673 127.681 485.976 124.165 484.304C122.288 483.495 120.46 482.433 118.637 481.499C124.579 478.082 130.619 474.792 136.276 470.913Z"/>
	<path fill="#FEFEFE" d="M154.467 421.661C154.903 421.618 155.338 421.572 155.775 421.547C159.799 421.313 163.864 421.192 167.021 424.126C168.937 425.906 170.061 428.286 170.052 430.918C170.02 440.446 157.839 450.639 151.379 456.649L150.87 456.965C148.306 456.6 141.872 450.42 138.697 448.812C137.858 441.904 136.932 435.102 135.737 428.246C141.705 425.123 147.823 422.851 154.467 421.661Z"/>
	<path fill="#FEFEFE" d="M150.506 460.484C157.676 466.819 170.826 476.868 171.297 487.187C171.412 489.713 170.584 492.573 168.714 494.349C165.854 497.066 161.883 497.07 158.206 496.982C150.292 495.871 143.44 492.95 136.233 489.659C137.581 482.877 138.366 476.246 138.627 469.336C142.722 466.551 146.613 463.539 150.506 460.484Z"/>
	<path fill="#FEFEFE" d="M115.001 483.011C115.578 482.878 116.14 482.588 116.731 482.612C118.979 482.704 130.868 489.251 134.385 490.603C132.218 499.788 129.799 514.213 121.204 519.639C119.496 520.718 117.449 521.226 115.455 520.762C111.333 519.802 108.269 515.753 106.291 512.273C102.849 506.215 99.663 497.323 99.9471 490.287C102.984 490.46 112.347 484.924 115.001 483.011Z"/>
	<path fill="#FEFEFE" d="M116.038 437.701C120.444 437.862 132.774 446.666 136.867 449.436C137.335 455.736 137.307 462.035 137.331 468.348Q127.178 474.709 116.721 480.555C109.657 477.075 103.309 472.596 96.5772 469.199C97.1196 466.052 96.695 461.783 96.3144 458.591C96.1512 455.722 96.4307 452.788 96.5643 449.919C102.873 445.577 109.5 441.685 116.038 437.701Z"/>
	<path fill="#F5D14A" d="M913.265 292.681C917.214 288.209 922.203 284.101 927.303 281.003C930.775 278.894 935.296 276.796 939.425 277.981C941.79 278.66 943.504 280.362 944.61 282.515C948.128 289.369 946.084 302.153 943.855 309.134Q946.039 309.832 948.203 310.592C954.07 312.683 961.043 316.478 963.67 322.401C965.012 325.43 964.894 328.743 963.56 331.751C960.412 338.847 951.599 343.779 944.693 346.511C946.149 353.367 947.895 361.06 946.59 368.067C945.456 370.738 944.377 372.917 941.556 374.078C937.573 375.717 932.918 374.365 929.191 372.648C926.764 371.529 924.132 370.224 921.924 368.716C918.549 367.229 915.84 364.781 913.166 362.305C906.738 367.591 900.756 373.349 892.408 375.238C888.775 374.374 885.829 373.185 883.549 370.074C878.53 363.224 880.902 351.986 881.986 344.157C878.462 343.029 874.962 341.863 871.632 340.234C867.286 338.109 862.445 334.886 860.928 330.048C860.099 327.406 860.437 324.662 861.783 322.255C865.473 315.659 875.79 311.458 882.753 309.602Q882.067 306.757 881.651 303.86C880.728 297.598 879.105 287.246 883.389 281.891C884.799 280.127 886.81 279.156 889.048 278.983C897.749 278.307 907.199 287.347 913.265 292.681Z"/>
	<path fill="#FEFEFE" d="M928.131 306.67C932.738 307.747 937.305 308.854 941.845 310.192C941.109 314.461 939.774 318.685 938.644 322.867L938.269 324.047L937.799 324.042C935.279 315.329 931.87 313.785 928.131 306.67Z"/>
	<path fill="#FEFEFE" d="M913.441 294.873C917.347 297.416 920.756 301.078 923.965 304.422C920.756 304.19 917.545 304.092 914.33 303.985C910.534 304.033 906.822 304.444 903.062 304.933C906.43 301.494 909.969 298.207 913.441 294.873Z"/>
	<path fill="#FEFEFE" d="M898.24 307.157L898.563 307.218C898.331 308.226 898.512 307.95 897.956 308.687C896.368 310.79 894.585 312.787 893.287 315.094C891.798 317.738 890.761 321.32 888.78 323.552L888.253 322.869C886.937 318.838 885.786 314.768 884.638 310.687L898.24 307.157Z"/>
	<path fill="#FEFEFE" d="M888.435 329.933C888.844 330.392 888.678 330.143 888.972 330.801C891.464 336.38 894.338 341.559 897.633 346.694C896.771 346.947 896.25 346.723 895.391 346.535C891.598 345.564 887.826 344.494 884.048 343.467C885.28 338.882 886.542 334.294 888.435 329.933Z"/>
	<path fill="#FEFEFE" d="M937.888 328.463C940.285 331.697 941.902 340.976 942.99 345.156C939.252 346.485 935.541 347.365 931.66 348.174L926.72 348.892C931.489 342.45 935.272 336.061 937.888 328.463Z"/>
	<path fill="#FEFEFE" d="M942.709 347.307C944.595 352.614 944.548 359.884 944.504 365.515C943.849 367.896 943.078 370.617 940.601 371.724C937.355 373.176 932.822 371.067 929.577 370.258C924.37 367.465 919.443 364.718 914.91 360.89C918.389 357.573 921.796 354.258 925.024 350.691C931.095 350.047 936.837 348.987 942.709 347.307Z"/>
	<path fill="#FEFEFE" d="M882.241 311.544L882.405 311.579C883.906 312.99 886.842 324.232 887.805 327.075C885.377 332.269 883.673 337.346 882.353 342.927C878.928 341.547 875.57 340.103 872.237 338.512C868.814 336.645 864.503 334.221 862.874 330.503C861.952 328.4 862.065 326.134 863.016 324.064C866.066 317.42 875.846 313.845 882.241 311.544Z"/>
	<path fill="#FEFEFE" d="M943.869 310.633C949.684 312.402 956.681 315.332 960.558 320.208C962.328 322.434 963.262 325.068 962.889 327.92C962.214 333.081 957.831 336.453 954.015 339.437C950.992 341.442 947.953 343.029 944.64 344.497C942.725 338.449 941.097 332.319 939.134 326.278Q941.681 318.51 943.869 310.633Z"/>
	<path fill="#FEFEFE" d="M934.804 280.558C935.613 280.49 936.449 280.41 937.261 280.464C939.092 280.585 940.687 281.686 941.734 283.143C946.06 289.162 943.216 301.834 941.949 308.505C937.487 306.844 932.8 305.94 928.129 305.1C924.589 304.264 917.997 296.437 914.589 293.823C921.545 289.381 927.151 283.984 934.804 280.558Z"/>
	<path fill="#FEFEFE" d="M888.362 280.71C897.704 280.512 904.959 287.998 911.581 293.627Q906.149 299.053 900.891 304.647C896.389 307.048 889.342 307.703 884.299 309.013C882.98 302.152 880.858 292.155 883.559 285.405C884.599 282.806 885.86 281.833 888.362 280.71Z"/>
	<path fill="#FEFEFE" d="M883.908 344.83C888.722 347.024 894.49 347.943 899.674 348.98C902.86 353.187 905.881 357.602 910.228 360.702L910.902 360.41L910.409 360.784L910.858 360.277C908.855 356.238 904.611 352.5 901.546 349.188C908.209 350.521 914.727 350.636 921.491 350.773L921.775 351.384L920.631 352.874C915.813 357.749 910.39 362.284 905.121 366.67C901.177 369.954 896.197 373.73 890.761 373.074C888.509 372.802 886.528 371.698 885.205 369.837C880.6 363.362 882.709 352.045 883.908 344.83Z"/>
	<path fill="#FEFEFE" d="M907.872 305.714C913.566 305.3 919.885 305.08 925.415 306.713C930.76 312.404 934.401 318.922 937.274 326.12C934.65 333.01 931.396 340.98 926.392 346.503C924.558 348.527 923.352 349.116 920.625 349.255C913.902 349.432 906.667 348.921 900.144 347.26C895.335 341.244 892.281 334.257 889.285 327.231C892.688 319.563 896.171 313.172 901.519 306.688L907.872 305.714Z"/>
	<path fill="#36345B" d="M914.369 617.575Q915.334 617.548 916.293 617.661Q917.251 617.775 918.183 618.028Q919.115 618.281 919.999 618.667Q920.884 619.053 921.703 619.564C930.056 624.7 932.169 637.874 934.254 646.707C940.501 644.251 947.031 641.713 953.824 641.528C958.309 641.406 963.84 642.455 967.166 645.716C969.069 647.582 969.916 650.075 969.829 652.717C969.459 663.829 958.832 672.589 951.463 679.701C957.868 685.757 965.904 692.339 969.704 700.45C971.155 703.549 971.286 707.581 969.954 710.763C968.758 713.622 965.848 715.967 963.027 717.094C954.189 720.623 943.234 715.994 935.083 712.546C934.199 716.853 933.205 721.192 931.727 725.338C929.228 732.346 925.683 738.02 918.737 741.272C916.435 741.539 914.261 741.278 912.184 740.181C903.898 735.805 900.118 721.951 897.578 713.554C890.816 716.406 883.267 719.798 875.794 719.808C872.358 719.813 868.507 719.003 866.049 716.422C863.908 714.174 863.253 710.933 863.384 707.918C863.851 697.191 874.647 686.967 882.034 680.302C875.533 674.944 868.414 668.633 864.618 660.951C862.742 657.153 861.676 652.452 863.197 648.343C864.17 645.717 866.032 643.874 868.586 642.763C877.388 638.935 889.411 643.845 897.823 646.931C899.41 639.439 901.21 630.864 905.29 624.274C907.625 620.502 910.077 618.601 914.369 617.575Z"/>
	<path fill="#FEFEFE" d="M895.223 671.752C894.878 676.484 894.562 681.423 895.19 686.142C895.074 686.954 895.19 686.482 894.707 687.517C891.34 686.429 887.611 682.808 884.75 680.682L895.223 671.752Z"/>
	<path fill="#FEFEFE" d="M937.345 670.115C941.502 673.031 945.325 676.308 949.19 679.591L944.784 683.386L937.705 689.162C937.509 682.814 937.596 676.468 937.345 670.115Z"/>
	<path fill="#FEFEFE" d="M932.291 649.464C932.885 649.526 932.513 649.428 933.254 650.097Q934.77 658.211 935.142 666.457C932.689 664.788 930.139 663.231 927.641 661.625L918.435 656.277C923.124 654.194 927.695 651.748 932.291 649.464Z"/>
	<path fill="#FEFEFE" d="M935.14 692.909L935.558 692.967C936.989 695.805 934.606 707.006 934.006 710.264L925.322 706.255L918.765 702.873C924.305 699.678 929.883 696.561 935.14 692.909Z"/>
	<path fill="#FEFEFE" d="M896.822 691.827C900.314 694.37 904.014 697.096 907.987 698.818C909.626 700.631 912.591 701.82 914.744 703.018C910.664 705.676 906.021 708.31 901.516 710.138C900.368 710.603 899.873 711.077 898.717 710.584C897.329 704.496 897.142 698.051 896.822 691.827Z"/>
	<path fill="#FEFEFE" d="M899.019 649.466C903.947 651.619 908.733 654.002 913.533 656.422C914.719 656.883 916.015 657.279 917.126 657.896C913.926 659.604 909.933 662.526 906.552 663.609C904.735 663.756 903.223 664.954 901.531 664.833C899.961 665.928 898.409 667.091 896.773 668.083C897.831 661.978 898.168 655.628 899.019 649.466Z"/>
	<path fill="#ED8B51" d="M913.533 656.422C914.719 656.883 916.015 657.279 917.126 657.896C913.926 659.604 909.933 662.526 906.552 663.609C904.735 663.756 903.223 664.954 901.531 664.833C905.11 661.585 909.478 659.028 913.533 656.422Z"/>
	<path fill="#FEFEFE" d="M916.465 703.926C918.9 704.013 930.22 710.609 933.722 711.985C932.158 718.522 930.773 725.694 927.267 731.524C924.746 735.718 921.629 738.727 916.82 739.94C915.451 739.736 914.072 739.393 912.834 738.754C904.937 734.681 901.54 720.805 899.245 712.87C905.255 710.364 910.882 707.25 916.465 703.926Z"/>
	<path fill="#FEFEFE" d="M912.528 619.555C915.54 619.165 918.223 619.256 920.888 620.874C928.859 625.713 930.781 639.03 932.709 647.384C927.806 649.578 923.031 652.15 918.231 654.564C917.797 654.788 917.49 654.969 917.005 655.107C915.009 655.671 902.208 648.848 899.445 647.611C901.573 638.011 903.73 625.37 912.528 619.555Z"/>
	<path fill="#FEFEFE" d="M952.407 643.164C953.028 643.067 953.621 643.031 954.25 643.03C958.23 643.024 962.331 643.829 965.159 646.86C967.012 648.846 967.926 651.249 967.811 653.964C967.416 663.334 956.608 672.516 950.262 678.519C945.87 674.635 941.228 671.003 936.697 667.281C936.509 660.922 935.543 654.879 934.262 648.658C940.22 646.486 946.116 644.161 952.407 643.164Z"/>
	<path fill="#FEFEFE" d="M883.309 681.878C887.269 684.173 891.2 687.717 894.984 690.388C895.089 697.488 895.826 704.866 897.083 711.847C891.168 714.375 885.446 716.668 879.13 718.023C877.767 718.06 876.358 718.132 874.998 718.031C872.076 717.812 868.619 716.757 866.662 714.449C864.968 712.452 864.578 709.828 864.89 707.293C866.077 697.622 876.118 687.663 883.309 681.878Z"/>
	<path fill="#FEFEFE" d="M873.977 643.11C882.046 642.673 890.27 646.153 897.675 648.967C895.889 655.643 896.028 662.753 894.938 669.564Q890.618 672.823 886.514 676.349C885.48 677.338 884.543 678.558 883.053 678.73C876.125 674.167 866.207 664.098 864.391 655.727C863.775 652.892 864.004 649.799 865.768 647.398C867.8 644.633 870.75 643.716 873.977 643.11Z"/>
	<path fill="#FEFEFE" d="M950.279 680.983L953.488 683.858C959.872 689.616 969.091 697.3 969.319 706.649C969.377 709.01 968.806 711.315 967.083 713.016C964.251 715.812 959.374 716.54 955.579 716.651C948.415 716.483 942.05 713.618 935.495 711.04C936.815 704.368 937.514 697.813 937.572 691.011Q944.008 686.102 950.279 680.983Z"/>
	<path fill="#FEFEFE" d="M917.126 657.896C922.648 661.626 928.93 664.883 934.788 668.112C934.731 672.237 935.501 676.259 935.552 680.361C936.234 683.796 936.016 687.375 935.983 690.862C932.831 693.051 928.135 697.271 924.492 698.255C922.36 700.052 919.489 701.492 917.103 702.982C914.322 701.729 910.926 699.259 907.987 698.818C905.798 696.76 903.098 695.285 900.664 693.532C897.991 691.607 896.461 690.151 895.939 686.844L895.19 686.142C894.562 681.423 894.878 676.484 895.223 671.752L896.773 668.083C898.409 667.091 899.961 665.928 901.531 664.833C903.223 664.954 904.735 663.756 906.552 663.609C909.933 662.526 913.926 659.604 917.126 657.896Z"/>
	<path fill="#D2593E" d="M901.531 664.833C903.223 664.954 904.735 663.756 906.552 663.609C902.613 666.645 897.869 669.678 897.219 675.066C897.035 676.586 897.002 678.194 897.205 679.712C896.389 681.601 896.117 682.992 896.029 685.035L895.939 686.844L895.19 686.142C894.562 681.423 894.878 676.484 895.223 671.752L896.773 668.083C898.409 667.091 899.961 665.928 901.531 664.833Z"/>
	<path fill="#F5D14A" d="M935.552 680.361C936.234 683.796 936.016 687.375 935.983 690.862C932.831 693.051 928.135 697.271 924.492 698.255C923.04 698.654 921.544 698.731 920.05 698.867C927.142 694.516 933.487 688.67 935.552 680.361Z"/>
	<path fill="#ED8B51" d="M897.205 679.712C898.871 687.777 902.696 692.599 909.542 697.145C911.637 698.536 915.232 700.345 917.823 699.755C918.627 699.572 919.323 699.241 920.05 698.867C921.544 698.731 923.04 698.654 924.492 698.255C922.36 700.052 919.489 701.492 917.103 702.982C914.322 701.729 910.926 699.259 907.987 698.818C905.798 696.76 903.098 695.285 900.664 693.532C897.991 691.607 896.461 690.151 895.939 686.844L896.029 685.035C896.117 682.992 896.389 681.601 897.205 679.712Z"/>
	<path fill="#030304" d="M250.367 304.675C261.401 304.18 272.63 304.556 283.686 304.551L345.076 304.53L536.527 304.537L698.342 304.58L747.941 304.561C756.291 304.55 764.931 304.059 773.242 304.611C776.068 304.798 779.247 306.141 781.473 307.865C785.948 311.33 787.631 315.546 788.178 321.019C788.795 327.193 788.472 333.633 788.482 339.845L788.502 373.46L788.526 481.2L788.502 617.463L788.616 662.05C788.642 670.19 789.015 678.516 788.499 686.638C788.246 690.623 786.684 693.891 784.096 696.92C780.37 701.282 774.815 703.131 769.273 703.711C760.279 704.654 750.537 703.885 741.475 703.865L688.724 703.833L581.473 703.717C561.381 703.671 541.066 703.026 521.001 703.77C508.761 704.224 496.519 705.743 484.288 706.52C484.588 722.992 486.366 739.532 487.465 755.972C487.772 760.571 489.182 768.299 488.219 772.5C487.986 773.516 488.196 773.157 487.275 773.703L486.503 773.22C485.164 769.938 485.5 761.991 485.235 758.117C484.071 741.124 483.669 723.737 481.567 706.856C459.144 708.256 439.891 709.461 420.204 696.56C403.035 685.309 392.015 668.348 387.82 648.288C386.631 642.603 384.256 629.969 387.571 624.895C388.477 628.736 388.159 633.286 388.42 637.251C388.826 643.404 390.116 649.218 391.845 655.123C396.391 668.923 403.765 681.301 415.236 690.421Q416.811 691.692 418.458 692.867Q420.104 694.043 421.818 695.119Q423.531 696.195 425.305 697.169Q427.079 698.142 428.907 699.009Q430.735 699.876 432.612 700.634Q434.488 701.392 436.405 702.038Q438.323 702.683 440.275 703.215Q442.228 703.746 444.208 704.162C458.238 706.96 473.492 705.142 487.661 704.139Q518.958 701.742 550.146 698.202C550.286 697.785 550.424 697.368 550.547 696.945C553.368 687.199 552.946 665.168 548.067 656.181L501.924 659.019C492.301 659.574 482.214 660.713 472.603 659.76C461.088 658.619 450.963 653.87 443.656 644.752C437.005 636.453 434.98 627.3 434.119 616.866C433.892 614.12 433.53 610.995 433.922 608.253C434.075 607.182 434.012 607.027 434.93 606.395C436.27 607.689 436.661 623.378 437.557 627.146C439.079 633.543 441.868 639.73 446.192 644.728C454.502 654.334 465.389 656.994 477.579 657.904C477.775 632.44 468.578 604.442 455.424 582.702C446.366 567.731 433.954 552.466 416.174 548.181C407.198 546.017 398.852 547.648 391.042 552.426C378.704 559.974 369.44 572.068 364.37 585.507C355.949 607.823 356.226 639.206 354.734 663.318L350.026 742.058C349.44 751.816 349.822 763.769 347.614 773.153L346.889 773.199C346.207 771.926 346.166 770.799 346.128 769.385C345.935 762.192 346.988 754.647 347.429 747.446L350.065 702.938L283.247 702.974C271.964 702.998 260.125 703.807 248.935 702.772C246.596 702.556 244.559 702.036 242.557 700.781C238.615 698.31 235.381 693.844 234.401 689.29C232.639 681.108 233.984 666.351 234.006 657.454L233.918 593.116L233.832 431.311L233.736 364.057C233.716 351.156 233.288 338.101 233.808 325.216C233.995 320.593 234.452 315.935 237.206 312.045C240.396 307.538 245.125 305.608 250.367 304.675Z"/>
	<path fill="#FEFEFE" d="M551.984 658.591C557.344 658.195 562.739 657.617 568.019 656.6C572.523 655.732 582.243 652.099 586.156 652.449C587.258 652.548 587.467 653.12 588.144 653.858C588.453 655.103 588.408 655.931 588.021 657.131C585.589 664.68 579.358 668.657 572.784 672.194Q567.254 673.881 561.637 675.253L554.314 676.109C553.76 670.241 552.845 664.42 551.984 658.591Z"/>
	<path fill="#FEFEFE" d="M350.461 699.733Q317.238 699.888 284.015 699.614C274.435 699.617 259.922 700.601 250.82 699.555C247.864 699.216 244.351 698.638 242.125 696.501C239.909 694.375 237.992 691.194 237.667 688.098C236.442 676.428 237.371 663.78 237.379 652.024L237.41 576.805L237.354 421.703C237.334 390.134 236.879 358.503 237.266 326.939C237.334 321.413 237.723 315.947 241.948 311.879C245.127 308.818 249.47 308.586 253.712 308.438C265.469 308.028 277.335 308.34 289.106 308.338L355.707 308.333L544.311 308.232L692.012 308.296L743.143 308.259C751.581 308.259 760.144 307.91 768.568 308.303C772.177 308.472 778.021 308.724 780.488 311.559C783.734 315.289 784.729 319.167 785.012 324.007C785.457 331.628 785.104 339.45 785.084 347.087L785.043 388.701L785.14 524.311L785.175 631.564L785.302 665.628C785.337 672.005 785.83 678.697 785.189 685.025C784.743 689.434 783.26 693.158 779.693 695.944C776.739 698.252 773.648 699.677 769.914 700.059C759.889 701.085 749.325 700.454 739.244 700.447L683.623 700.398L596.484 700.407C581.571 700.418 566.487 700.914 551.591 700.375C553.938 693.08 554.279 685.656 554.468 678.043C557.204 677.765 560.248 677.719 562.885 676.956C568.07 676.431 573.016 674.762 577.592 672.31C580.482 670.862 583.129 668.653 585.24 666.215C587.735 663.336 590.815 659.084 590.375 655.113C590.026 651.966 587.498 650.277 585.187 648.512C587.221 641.941 590.587 635.562 593.524 629.352C598.719 618.366 604.08 607.443 608.847 596.263C605.263 594.731 601.926 592.575 598.577 590.588C591.014 602.199 585.412 617.657 579.567 630.375C575.998 638.141 571.293 646.049 568.719 654.188C564.128 655.218 558.973 656.148 554.27 655.668C550.342 655.266 546.461 654.431 542.495 654.597C521.627 655.469 500.75 657.021 479.881 658.045C479.476 644.734 477.362 632.1 473.713 619.324C466.656 594.623 450.456 562.645 427.475 549.865C427.453 544.309 427.491 537.941 426.555 532.483C426.196 530.388 424.113 527.145 424.488 525.289L426.387 524.414C427.184 524.311 428.081 524.092 428.841 523.805C431.825 522.677 434.012 520.029 435.198 517.142C437.392 511.803 436.692 506.44 434.45 501.284L433.333 499.259C429.181 493.273 423.992 484.259 416.166 483.056Q415.37 482.929 414.564 482.885Q413.759 482.842 412.953 482.883Q412.148 482.923 411.351 483.047Q410.554 483.172 409.775 483.378Q408.995 483.585 408.241 483.871Q407.487 484.158 406.767 484.521Q406.047 484.885 405.369 485.321Q404.691 485.757 404.062 486.262C399.349 490.015 397.739 495.066 396.295 500.632C391.893 502.849 388.507 505.141 386.903 510.123C385.768 513.649 386.058 517.801 387.888 521.046C389.577 524.04 392.308 526.499 395.671 527.34C398.203 527.973 400.759 528.428 403.259 529.187C403.579 530.115 403.826 530.941 403.948 531.917C403.982 534.577 403.494 539.964 405.505 541.927C407.146 539.566 406.066 535.266 405.981 532.534L405.691 529.706C406.143 527.973 408.52 526.469 409.985 525.484C411.63 524.379 412.687 523.242 413.913 521.711L414.398 521.102C414.796 516.285 414.36 511.973 413.513 507.225C420.683 503.42 423.496 500.713 426.33 493.041C429.108 495.868 431.501 499.021 433.057 502.688C434.817 506.834 435.329 512.031 433.448 516.242C431.968 519.554 429.31 521.413 426.023 522.648C422.423 523.556 420.11 524.326 416.422 523.32C415.283 523.01 414.956 522.725 413.798 523.244C414.054 524.206 414.492 524.556 415.38 525.071C417.514 526.307 420.732 525.761 423.036 525.447C424.79 533.309 424.609 541.015 425.295 548.968C415.004 545.27 404.982 543.001 394.638 547.926C379.239 555.257 367.042 570.938 361.511 586.792C353.646 609.336 354.157 634.979 352.76 658.617C351.954 672.272 350.696 686.067 350.461 699.733Z"/>
	<path fill="#325EA7" d="M490.204 523.969C490.822 527.916 492.62 536.567 490.603 540.255C487.991 537.378 488.333 528.87 487.823 524.816C488.868 526.172 489.212 527.73 489.688 529.344L490.204 523.969Z"/>
	<path fill="#325EA7" d="M490.869 422.224C492.581 428.039 493.319 433.128 492.706 439.194L490.226 437.66C490.427 432.935 489.988 428.59 488.647 424.063L490.869 422.224Z"/>
	<path fill="#325EA7" d="M481.468 458.708L484.919 458.213C482.168 461.527 479.292 464.978 475.952 467.72C473.677 469.582 471.427 471.57 469.032 473.27L467.399 471.55C468.726 469.783 471.831 467.844 473.611 466.405C476.395 464.014 478.91 461.334 481.468 458.708Z"/>
	<path fill="#29549E" d="M490.226 437.66L492.706 439.194C491.807 446.238 489.316 452.608 484.919 458.213L481.468 458.708C486.576 452.071 489.281 446.035 490.226 437.66Z"/>
	<path fill="#29549E" d="M450.531 391.137C451.199 391.844 451.541 392.301 451.85 393.227C444.952 398.083 438.434 403.285 432.415 409.213L431.887 408.489C433.086 407.215 434.238 405.906 435.389 404.589C434.126 404.675 432.699 407.249 431.128 407.661C430.911 407.718 430.689 407.757 430.47 407.804C435.738 401.458 443.567 395.559 450.531 391.137Z"/>
	<path fill="#F5D14A" d="M633.461 466.916C637.136 466.74 656.939 466.08 658.757 467.615L658.272 468.449C657.991 468.625 657.714 468.808 657.429 468.976C654.965 470.422 637.901 470.703 635.11 469.714C634.323 469.436 633.817 467.681 633.461 466.916Z"/>
	<path fill="#29549E" d="M467.771 394.88C477.822 402.959 485.68 410.152 490.869 422.224L488.647 424.063C486.079 417.782 483.191 412.818 478.507 407.896L476.746 405.996C473.388 402.616 469.756 399.687 466.043 396.717L467.771 394.88Z"/>
	<path fill="#F5D14A" d="M629.659 407.048C640.305 407.233 650.985 407.083 661.621 407.478L664.272 410.051C652.831 410.5 638.107 411.09 626.839 409.701L629.659 407.048Z"/>
	<path fill="#F5D14A" d="M440.361 499.75C447.496 499.771 464.808 498.391 470.71 499.679C472.013 499.963 472.141 500.222 472.697 501.296L472.186 502.3L470.625 502.518C466.524 502.611 439.189 503.209 437.65 502.232L437.605 501.1C438.641 499.803 438.689 499.97 440.361 499.75Z"/>
	<path fill="#F5D14A" d="M437.15 371.688C437.131 370.455 436.885 370.284 437.699 369.287C442.525 368.888 474.278 368.109 476.61 369.632L474.812 371.269C467.971 373.804 445.768 372.873 437.947 371.86L437.15 371.688Z"/>
	<path fill="#F5D14A" d="M625.279 372.719C629.062 371.902 662.687 371.741 666.518 372.634L663.839 375.294C657.519 376.999 635.458 376.184 628.236 375.557L625.279 372.719Z"/>
	<path fill="#29549E" d="M457.798 484.621C472.396 492.855 485.6 507.766 490.204 523.969L489.688 529.344C489.212 527.73 488.868 526.172 487.823 524.816C487.808 524.789 487.788 524.764 487.779 524.735C482.03 506.995 470.315 496.698 455.811 485.822L457.798 484.621Z"/>
	<path fill="#29549E" d="M476.61 369.632C481.162 365.566 485.28 360.86 487.225 354.962C487.91 352.883 488.373 349.832 489.698 348.106C490.837 348.282 490.855 348.209 491.582 349.086C492.206 353.913 486.923 362.189 483.998 365.961C478.33 373.267 466.102 382.651 458.316 387.715L456.357 385.992C462.662 381.257 468.956 376.559 474.812 371.269L476.61 369.632Z"/>
	<path fill="#F5D14A" d="M459.689 515.244C464.702 515.158 478.689 513.802 482.713 515.857C483.394 516.204 483.279 516.546 483.453 517.22L482.684 518.026C475.757 518.588 468.585 518.304 461.625 518.363C457.249 518.337 438.127 519.341 435.914 517.26L436.375 516.372C439.339 514.398 455.221 515.284 459.689 515.244Z"/>
	<path fill="#F5D14A" d="M618.815 358.996C629.624 358.799 640.457 358.936 651.268 358.938C658.254 358.939 665.456 358.586 672.413 359.185C673.048 360.334 672.613 360.866 672.304 362.085C666.735 362.335 622.039 363.038 619.535 361.316C618.876 360.862 618.946 359.735 618.815 358.996Z"/>
	<path fill="#F5D14A" d="M428.738 529.696C435.844 529.66 484.911 528.923 487.794 530.466C488.036 531.605 487.967 531.585 487.401 532.618C478.905 532.747 431.907 533.676 428.238 532.064C428.015 530.846 428.141 530.804 428.738 529.696Z"/>
	<path fill="#F5D14A" d="M616.459 455.199C617.15 453.997 617.13 453.623 618.549 453.297C623.611 452.137 630.537 452.883 635.793 452.842C648.634 452.742 661.596 452.348 674.424 452.907C674.076 454.293 674.195 455.117 672.976 455.964C665.543 456.235 620.149 456.995 616.459 455.199Z"/>
	<path fill="#F5D14A" d="M614.354 437.576C621.853 437.063 675.643 436.698 677.822 438.076L678.267 440.089C672.459 441.438 663.304 440.539 657.193 440.558C643.447 440.602 629.541 441.071 615.812 440.445C614.639 439.757 614.715 438.838 614.354 437.576Z"/>
	<path fill="#F5D14A" d="M619.181 422.046C630.283 422.153 641.397 422.318 652.499 422.266C658.23 422.239 664.249 421.639 669.942 422.212C671.374 422.356 672.282 422.618 673.446 423.457C673.85 424.417 674.102 424.406 673.691 425.421L672.125 425.718C664.904 425.734 621.43 426.611 618.055 425.395C617.915 425.345 617.787 425.266 617.654 425.202L617.215 425.326C617.369 424.227 618.54 422.971 619.181 422.046Z"/>
	<path fill="#F5D14A" d="M427.311 355.079C438.168 354.55 449.217 354.92 460.097 354.905C468.346 354.893 477.043 354.346 485.229 355.131L485.729 355.856L485.138 357.99C481.883 358.843 432.125 358.971 428.767 358.062C427.683 357.037 427.588 356.48 427.311 355.079Z"/>
	<path fill="#325EA7" d="M454.109 388.199C449.552 384.035 444.056 380.659 439.224 376.785C431.526 370.613 422.466 360.771 420.395 350.792C420.122 349.478 420.326 349.307 421.018 348.252C421.34 348.29 421.696 348.217 421.983 348.367C422.218 348.49 422.972 349.839 423.097 350.093C424.723 353.392 425.736 356.973 427.535 360.203C429.94 364.519 433.973 367.936 437.15 371.688L437.947 371.86Q446.676 379.393 456.099 386.037L456.357 385.992L458.316 387.715L459.652 388.951L467.771 394.88L466.043 396.717C463.91 395.411 461.902 393.855 459.872 392.393C458.278 391.323 457.54 390.452 455.59 390.478Q453.738 391.878 451.85 393.227C451.541 392.301 451.199 391.844 450.531 391.137C451.775 390.21 452.939 389.218 454.109 388.199Z"/>
	<path fill="#FEFEFE" d="M644.792 394.123L646.934 394.467C651.23 399.277 657.079 402.794 661.621 407.478C650.985 407.083 640.305 407.233 629.659 407.048C634.398 402.407 639.659 398.316 644.792 394.123Z"/>
	<path fill="#325EA7" d="M648.338 392.958C653.938 395.125 668.737 410.426 672.718 415.528Q674.602 417.904 676.174 420.496Q677.746 423.089 678.982 425.858Q679.329 426.639 679.637 427.437Q679.944 428.235 680.212 429.047Q680.48 429.859 680.707 430.683Q680.935 431.507 681.121 432.342Q681.307 433.176 681.451 434.019Q681.596 434.862 681.698 435.711Q681.8 436.559 681.861 437.412Q681.921 438.265 681.939 439.12Q681.957 439.975 681.932 440.829Q681.908 441.684 681.841 442.536Q681.774 443.389 681.665 444.237Q681.556 445.085 681.405 445.926Q681.254 446.768 681.061 447.601Q680.869 448.434 680.635 449.257Q680.401 450.079 680.127 450.889Q679.853 451.699 679.539 452.494C677.435 457.742 672.523 465.719 667.206 468.045C666.164 468.501 666.603 468.401 665.493 468.333C665.413 467.047 666.076 466.425 666.879 465.475C674.895 455.992 679.74 450.7 679.061 437.361C678.555 427.417 672.347 417.381 665.137 410.771C664.86 410.517 664.564 410.287 664.272 410.051L661.621 407.478C657.079 402.794 651.23 399.277 646.934 394.467L648.338 392.958Z"/>
	<path fill="#FEFEFE" d="M474.812 371.269C468.956 376.559 462.662 381.257 456.357 385.992L456.099 386.037Q446.676 379.393 437.947 371.86C445.768 372.873 467.971 373.804 474.812 371.269Z"/>
	<path fill="#325EA7" d="M430.47 407.804C430.689 407.757 430.911 407.718 431.128 407.661C432.699 407.249 434.126 404.675 435.389 404.589C434.238 405.906 433.086 407.215 431.887 408.489L432.415 409.213C425.13 419.609 420.516 429.841 422.86 442.788C425.865 459.395 441.742 471.433 454.565 480.903C455.1 482.073 455.352 481.998 456.419 482.62L457.798 484.621L455.811 485.822L454.769 485.247C449.12 487.502 439.247 496.966 434.45 501.284L433.333 499.259C439.335 493.379 445.824 488.138 452.425 482.954C446.241 478.027 440.108 472.959 434.359 467.527C425.444 459.102 419.487 449.036 419.219 436.508C419 426.238 423.311 415.193 430.47 407.804Z"/>
	<path fill="#29549E" d="M666.518 372.634C670.257 368.512 674.406 362.888 675.698 357.402C676.257 355.026 676.173 351.067 678.708 350.136C679.442 350.624 679.282 350.322 679.432 351.211C680.533 357.735 674.81 366.724 671.033 371.488C667.103 376.445 654.055 389.287 648.31 390.896L648.338 392.958L646.934 394.467L644.792 394.123C639.659 398.316 634.398 402.407 629.659 407.048L626.839 409.701C619.012 416.869 613.584 426.53 613.048 437.247C612.734 443.519 614.201 449.399 616.459 455.199C618.76 459.428 621.594 463.398 623.385 467.885C621.565 466.56 619.864 465.293 618.438 463.529C611.996 455.566 609.237 444.504 610.414 434.391C612.621 415.442 629.779 403.168 643.557 392.16C642.303 390.459 640.16 389.069 638.517 387.719C629.186 380.16 619.744 372.963 614.571 361.792C613.451 359.374 610.927 353.877 612.095 351.365C612.409 350.689 612.848 350.723 613.492 350.483C613.77 350.65 614.117 350.736 614.327 350.984C614.552 351.25 616.427 359.317 617.03 360.739Q617.714 362.362 618.554 363.909Q619.394 365.457 620.381 366.915Q621.369 368.374 622.494 369.728Q623.619 371.083 624.871 372.321L625.279 372.719L628.236 375.557C635.458 376.184 657.519 376.999 663.839 375.294L666.518 372.634Z"/>
	<path fill="#FEFEFE" d="M628.236 375.557C635.458 376.184 657.519 376.999 663.839 375.294C658.185 380.464 652.12 385.658 645.818 390.025C644.136 389.363 642.258 387.272 640.846 386.073C637.028 382.305 632.217 379.272 628.236 375.557Z"/>
	<path fill="#FEFEFE" d="M451.85 393.227Q453.738 391.878 455.59 390.478C457.54 390.452 458.278 391.323 459.872 392.393C461.902 393.855 463.91 395.411 466.043 396.717C469.756 399.687 473.388 402.616 476.746 405.996L478.507 407.896C483.191 412.818 486.079 417.782 488.647 424.063C489.988 428.59 490.427 432.935 490.226 437.66C489.281 446.035 486.576 452.071 481.468 458.708C478.91 461.334 476.395 464.014 473.611 466.405C471.831 467.844 468.726 469.783 467.399 471.55L469.032 473.27C465.075 476.389 460.878 480.296 456.419 482.62C455.352 481.998 455.1 482.073 454.565 480.903C441.742 471.433 425.865 459.395 422.86 442.788C420.516 429.841 425.13 419.609 432.415 409.213C438.434 403.285 444.952 398.083 451.85 393.227Z"/>
	<path fill="#29549E" d="M454.565 480.903Q460.901 476.116 467.399 471.55L469.032 473.27C465.075 476.389 460.878 480.296 456.419 482.62C455.352 481.998 455.1 482.073 454.565 480.903Z"/>
	<path fill="#F5D14A" d="M439.757 466.079C444.11 465.94 469.57 464.984 471.684 466.628L471.209 467.53C470.094 468.201 468.917 468.921 467.634 469.203C462.51 470.328 447.813 470.571 442.804 469.255C440.899 468.755 440.58 467.634 439.757 466.079Z"/>
	<path fill="#F5D14A" d="M478.507 407.896C478.115 408.485 477.806 408.659 477.225 409.038C472.896 409.221 438.26 409.667 436.143 408.883C435.791 408.752 435.539 408.437 435.237 408.214C435.297 408.146 435.347 408.069 435.416 408.012C437.166 406.559 440.261 405.983 442.451 405.717C446.112 405.273 450.056 405.734 453.748 405.747C461.385 405.774 469.134 405.388 476.746 405.996L478.507 407.896Z"/>
	<path fill="#F5D14A" d="M426.836 451.531C433.146 451.594 482.759 450.945 484.008 451.95L483.886 454.403C479.48 455.183 432.225 455.683 429.281 454.659C427.889 454.174 427.484 452.731 426.836 451.531Z"/>
	<path fill="#F5D14A" d="M427.942 420.646C435.581 420.895 482.821 420.345 485.622 421.569C486.394 421.906 486.309 422.502 486.53 423.242L486.003 424.13L484.573 424.226C477.19 424.367 429.681 425.336 426.012 423.846L425.653 422.918C426.31 421.685 426.707 421.298 427.942 420.646Z"/>
	<path fill="#F5D14A" d="M424.139 436.179L467.022 436.126C474.067 436.108 481.728 435.433 488.695 436.265C489.524 437.522 489.303 438.08 489.245 439.556L448.442 439.745C440.632 439.799 432.611 440.244 424.823 439.734C423.831 438.422 424.103 437.789 424.139 436.179Z"/>
	<path fill="#030304" d="M631.32 475.707C645.971 474.614 661.084 477.274 673.228 485.945Q674.346 486.752 675.422 487.613Q676.498 488.474 677.53 489.387Q678.562 490.301 679.547 491.265Q680.532 492.229 681.469 493.24Q682.405 494.252 683.289 495.309Q684.174 496.366 685.005 497.465Q685.836 498.565 686.611 499.704Q687.387 500.844 688.104 502.02Q688.822 503.197 689.48 504.408Q690.139 505.619 690.736 506.861Q691.333 508.103 691.868 509.374Q692.403 510.644 692.874 511.939Q693.345 513.234 693.75 514.552Q694.156 515.869 694.496 517.204Q694.836 518.54 695.109 519.891Q695.382 521.242 695.588 522.605Q695.82 524.068 695.979 525.541Q696.138 527.013 696.225 528.492Q696.312 529.971 696.326 531.452Q696.339 532.933 696.28 534.413Q696.221 535.893 696.09 537.368Q695.958 538.844 695.753 540.311Q695.549 541.778 695.273 543.233Q694.997 544.688 694.649 546.128Q694.302 547.568 693.884 548.989Q693.466 550.41 692.979 551.809Q692.491 553.207 691.936 554.58Q691.38 555.954 690.758 557.298Q690.135 558.642 689.447 559.953Q688.759 561.265 688.008 562.542Q687.256 563.818 686.443 565.056Q685.629 566.294 684.756 567.49C674.087 581.824 659.176 589.86 641.718 592.463C624.777 593.444 611.342 590.65 597.783 579.957C586.326 570.922 578.146 557.539 576.602 542.939C574.918 527.017 579.234 509.997 589.513 497.564C600.438 484.349 614.333 477.245 631.32 475.707Z"/>
	<path fill="#FEFEFE" d="M632.312 481.693C644.639 480.006 659.356 484.399 669.423 491.476C679.785 498.76 686.947 510.664 688.949 523.122C691.182 537.01 687.88 552.001 679.615 563.411C670.375 576.166 656.897 583.429 641.539 585.886C627.644 587.307 613.841 584.366 602.777 575.435C592.313 566.989 584.661 554.771 583.238 541.256C581.771 527.33 585.959 512.52 594.778 501.618C604.275 489.878 617.428 483.266 632.312 481.693Z"/>
	<path fill="#5484CC" d="M626.268 487.098C627.811 487.052 629.462 486.912 630.999 487.042C632.342 487.154 633.059 487.296 633.979 488.28C633.462 489.182 602.626 511.386 598.538 514.862C597.132 516.156 595.82 517.689 593.824 517.637C593.123 516.624 592.943 516.155 593.2 514.909C593.64 512.765 594.914 510.716 596.344 509.098C601.487 503.279 618.96 491.346 626.268 487.098Z"/>
	<path fill="#5484CC" d="M681.434 531.881L682.121 532.428C682.707 533.961 683.389 535.948 682.733 537.593C681.858 539.789 629.315 579.64 626.701 580.605C625.973 580.873 624.468 579.996 623.73 579.702L620.132 577.863C629.962 568.94 641.608 561.478 652.235 553.499C661.669 546.416 671.306 537.87 681.434 531.881Z"/>
	<path fill="#5484CC" d="M655.431 492.424C657.524 493.279 659.473 494.682 661.392 495.874C656.916 500.609 650.59 504.315 645.407 508.305C628.406 521.393 610.745 533.685 594.023 547.107C593.093 547.776 593.036 548.045 591.846 548.052C590.408 546.67 590.215 544.12 589.805 542.227C596.276 536.394 604.047 531.516 611.007 526.244Q633.098 509.175 655.431 492.424Z"/>
	<path fill="#5484CC" d="M673.64 507.907C675.252 509.689 676.238 511.628 677.348 513.734C670.457 519.441 662.643 524.332 655.496 529.763L621.478 555.751C616.962 559.24 609.862 565.903 604.929 568.171C603.138 566.657 601.673 564.983 600.142 563.218C625.067 545.37 649.009 526.152 673.64 507.907Z"/>
</svg>
